<mxfile host="app.diagrams.net" modified="2021-12-10T13:57:00.549Z" agent="5.0 (Macintosh; Intel Mac OS X 10_15_7) AppleWebKit/537.36 (KHTML, like Gecko) Chrome/96.0.4664.93 Safari/537.36" etag="NP9xW1qWgbJIGLq0thuF" version="15.9.4" type="github">
  <diagram id="07fea595-8f29-1299-0266-81d95cde20df" name="Page-1">
    <mxGraphModel dx="928" dy="1189" grid="1" gridSize="10" guides="1" tooltips="1" connect="1" arrows="1" fold="1" page="1" pageScale="1" pageWidth="1169" pageHeight="827" background="none" math="0" shadow="0">
      <root>
        <mxCell id="0" />
        <mxCell id="1" parent="0" />
        <mxCell id="eQl24ylE83qFWy2jF4Tj-662" value="" style="shape=mxgraph.pid.heat_exchangers.heat_exchanger_(spiral);html=1;pointerEvents=1;align=center;verticalLabelPosition=bottom;verticalAlign=top;dashed=0;fillColor=#A9E8A9;strokeColor=#82b366;gradientColor=#ffffff;gradientDirection=radial;" vertex="1" parent="1">
          <mxGeometry x="110" y="33" width="880" height="760" as="geometry" />
        </mxCell>
        <mxCell id="eQl24ylE83qFWy2jF4Tj-663" value="&lt;font style=&quot;font-size: 26px&quot;&gt;Parallels&lt;/font&gt;" style="text;html=1;strokeColor=none;fillColor=none;align=center;verticalAlign=middle;whiteSpace=wrap;rounded=0;" vertex="1" parent="1">
          <mxGeometry x="520" y="399" width="60" height="30" as="geometry" />
        </mxCell>
        <mxCell id="eQl24ylE83qFWy2jF4Tj-664" value="Ubuntu" style="text;html=1;strokeColor=none;fillColor=none;align=center;verticalAlign=middle;whiteSpace=wrap;rounded=0;fontSize=26;" vertex="1" parent="1">
          <mxGeometry x="520" y="240" width="60" height="30" as="geometry" />
        </mxCell>
        <mxCell id="eQl24ylE83qFWy2jF4Tj-665" value="" style="endArrow=none;html=1;rounded=0;fontSize=26;entryX=0.315;entryY=0.704;entryDx=0;entryDy=0;entryPerimeter=0;exitX=0.236;exitY=0.801;exitDx=0;exitDy=0;exitPerimeter=0;" edge="1" parent="1" source="eQl24ylE83qFWy2jF4Tj-662" target="eQl24ylE83qFWy2jF4Tj-662">
          <mxGeometry width="50" height="50" relative="1" as="geometry">
            <mxPoint x="320" y="640" as="sourcePoint" />
            <mxPoint x="390" y="560" as="targetPoint" />
          </mxGeometry>
        </mxCell>
        <mxCell id="eQl24ylE83qFWy2jF4Tj-666" value="" style="endArrow=none;html=1;rounded=0;fontSize=26;entryX=0.501;entryY=0.775;entryDx=0;entryDy=0;entryPerimeter=0;exitX=0.5;exitY=0.899;exitDx=0;exitDy=0;exitPerimeter=0;" edge="1" parent="1" source="eQl24ylE83qFWy2jF4Tj-662" target="eQl24ylE83qFWy2jF4Tj-662">
          <mxGeometry width="50" height="50" relative="1" as="geometry">
            <mxPoint x="549.9999999999998" y="714.96" as="sourcePoint" />
            <mxPoint x="617.1999999999998" y="640" as="targetPoint" />
          </mxGeometry>
        </mxCell>
        <mxCell id="eQl24ylE83qFWy2jF4Tj-667" value="" style="endArrow=none;html=1;rounded=0;fontSize=26;entryX=0.492;entryY=0.099;entryDx=0;entryDy=0;entryPerimeter=0;exitX=0.492;exitY=0.224;exitDx=0;exitDy=0;exitPerimeter=0;" edge="1" parent="1" source="eQl24ylE83qFWy2jF4Tj-662" target="eQl24ylE83qFWy2jF4Tj-662">
          <mxGeometry width="50" height="50" relative="1" as="geometry">
            <mxPoint x="519.9999999999998" y="204.95999999999998" as="sourcePoint" />
            <mxPoint x="587.1999999999998" y="129.99999999999994" as="targetPoint" />
          </mxGeometry>
        </mxCell>
        <mxCell id="eQl24ylE83qFWy2jF4Tj-668" value="" style="endArrow=none;html=1;rounded=0;fontSize=26;exitX=0.101;exitY=0.496;exitDx=0;exitDy=0;exitPerimeter=0;entryX=0.225;entryY=0.496;entryDx=0;entryDy=0;entryPerimeter=0;" edge="1" parent="1" source="eQl24ylE83qFWy2jF4Tj-662" target="eQl24ylE83qFWy2jF4Tj-662">
          <mxGeometry width="50" height="50" relative="1" as="geometry">
            <mxPoint x="200" y="410" as="sourcePoint" />
            <mxPoint x="307" y="410" as="targetPoint" />
          </mxGeometry>
        </mxCell>
        <mxCell id="eQl24ylE83qFWy2jF4Tj-669" value="" style="endArrow=none;html=1;rounded=0;fontSize=26;entryX=0.815;entryY=0.252;entryDx=0;entryDy=0;entryPerimeter=0;" edge="1" parent="1" target="eQl24ylE83qFWy2jF4Tj-662">
          <mxGeometry width="50" height="50" relative="1" as="geometry">
            <mxPoint x="749.9999999999998" y="292.48" as="sourcePoint" />
            <mxPoint x="817.1999999999998" y="217.51999999999998" as="targetPoint" />
          </mxGeometry>
        </mxCell>
        <mxCell id="eQl24ylE83qFWy2jF4Tj-670" value="g++" style="text;html=1;strokeColor=none;fillColor=none;align=center;verticalAlign=middle;whiteSpace=wrap;rounded=0;fontSize=26;" vertex="1" parent="1">
          <mxGeometry x="650" y="170" width="60" height="30" as="geometry" />
        </mxCell>
        <mxCell id="eQl24ylE83qFWy2jF4Tj-671" value="MPICH" style="text;html=1;strokeColor=none;fillColor=none;align=center;verticalAlign=middle;whiteSpace=wrap;rounded=0;fontSize=26;" vertex="1" parent="1">
          <mxGeometry x="290" y="230" width="60" height="30" as="geometry" />
        </mxCell>
        <mxCell id="eQl24ylE83qFWy2jF4Tj-672" value="NFS" style="text;html=1;strokeColor=none;fillColor=none;align=center;verticalAlign=middle;whiteSpace=wrap;rounded=0;fontSize=26;" vertex="1" parent="1">
          <mxGeometry x="250" y="500" width="60" height="30" as="geometry" />
        </mxCell>
        <mxCell id="eQl24ylE83qFWy2jF4Tj-673" value="HPL" style="text;html=1;strokeColor=none;fillColor=none;align=center;verticalAlign=middle;whiteSpace=wrap;rounded=0;fontSize=26;" vertex="1" parent="1">
          <mxGeometry x="410" y="630" width="60" height="30" as="geometry" />
        </mxCell>
        <mxCell id="eQl24ylE83qFWy2jF4Tj-675" value="" style="endArrow=none;html=1;rounded=0;fontSize=26;exitX=0.857;exitY=0.683;exitDx=0;exitDy=0;exitPerimeter=0;entryX=0.752;entryY=0.609;entryDx=0;entryDy=0;entryPerimeter=0;" edge="1" parent="1" source="eQl24ylE83qFWy2jF4Tj-662" target="eQl24ylE83qFWy2jF4Tj-662">
          <mxGeometry width="50" height="50" relative="1" as="geometry">
            <mxPoint x="699.9999999999998" y="574.96" as="sourcePoint" />
            <mxPoint x="760" y="490" as="targetPoint" />
          </mxGeometry>
        </mxCell>
        <mxCell id="eQl24ylE83qFWy2jF4Tj-676" value="C++" style="text;html=1;strokeColor=none;fillColor=none;align=center;verticalAlign=middle;whiteSpace=wrap;rounded=0;fontSize=26;" vertex="1" parent="1">
          <mxGeometry x="810" y="383" width="60" height="30" as="geometry" />
        </mxCell>
        <mxCell id="eQl24ylE83qFWy2jF4Tj-677" value="OpenSSH" style="text;html=1;strokeColor=none;fillColor=none;align=center;verticalAlign=middle;whiteSpace=wrap;rounded=0;fontSize=26;" vertex="1" parent="1">
          <mxGeometry x="670" y="620" width="60" height="30" as="geometry" />
        </mxCell>
      </root>
    </mxGraphModel>
  </diagram>
</mxfile>
